<svg width="25" height="18" fill="none" xmlns="http://www.w3.org/2000/svg"><rect x=".25" y=".25" width="24.5" height="17.5" rx="1.75" fill="#fff" stroke="#E4E4E4" stroke-width=".5"/><mask id="a" mask-type="alpha" maskUnits="userSpaceOnUse" x="0" y="0" width="25" height="18"><rect x=".25" y=".25" width="24.5" height="17.5" rx="1.75" fill="#fff" stroke="#fff" stroke-width=".5"/></mask><g mask="url(#a)"><path fill-rule="evenodd" clip-rule="evenodd" d="M0 6h25V0H0v6Z" fill="#E41D33"/><path fill-rule="evenodd" clip-rule="evenodd" d="M0 18h25v-6H0v6Z" fill="#262626"/><path d="m11.01 8.548.286.574.306-.562.001-.002.005-.009a4.243 4.243 0 0 1 .095-.161c.066-.106.159-.246.265-.385.108-.14.222-.268.331-.358.118-.097.184-.112.201-.112.039 0 .114.022.228.114.109.088.22.213.323.352a4.042 4.042 0 0 1 .336.54l.004.008v.001h.001l.299.602.298-.602.503-1.015h.317c.185 0 .334.15.334.334v1.682a.333.333 0 0 1-.52.276l-.747-.502-.084-.056h-1.03v.938a.262.262 0 0 1-.524 0v-.938h-1.03l-.084.056-.748.502a.333.333 0 0 1-.519-.276V7.867c0-.184.15-.334.334-.334h.316l.504 1.015Z" fill="#F4B32E" fill-opacity=".25" stroke="#C6A846" stroke-width=".667"/></g></svg>